<?xml version="1.0" standalone="no"?>
<!DOCTYPE svg PUBLIC "-//W3C//DTD SVG 20010904//EN"
 "http://www.w3.org/TR/2001/REC-SVG-20010904/DTD/svg10.dtd">
<svg version="1.0" xmlns="http://www.w3.org/2000/svg"
 width="67.000000pt" height="143.000000pt" viewBox="0 0 67.000000 143.000000"
 preserveAspectRatio="xMidYMid meet">

<g transform="translate(0.000000,143.000000) scale(0.100000,-0.100000)"
fill="#FF3343" stroke="none">
<path d="M165 830 l-160 -160 65 -65 c35 -36 71 -65 80 -65 20 0 310 290 310
310 0 14 -118 140 -130 140 -3 0 -77 -72 -165 -160z m215 65 c41 -42 43 -46
28 -62 -14 -14 -20 -14 -33 -3 -23 19 -44 -2 -25 -25 11 -13 11 -19 -3 -33
-16 -15 -19 -14 -47 13 -23 22 -33 26 -42 17 -9 -9 -5 -19 17 -42 27 -28 28
-31 13 -47 -14 -14 -20 -14 -33 -3 -23 19 -44 -2 -25 -25 11 -13 11 -19 -3
-33 -16 -15 -19 -14 -47 13 -23 22 -33 26 -42 17 -9 -9 -5 -19 17 -42 27 -29
28 -31 12 -47 -16 -17 -20 -15 -64 30 l-48 47 135 135 c74 74 137 135 140 135
3 0 26 -20 50 -45z"/>
<path d="M478 673 l-3 -128 -125 -5 -125 -5 0 -75 0 -75 205 0 205 0 0 205 0
205 -77 3 -77 3 -3 -128z m122 -83 l0 -170 -170 0 -170 0 0 45 c0 41 2 45 25
45 18 0 25 -5 25 -20 0 -11 7 -20 15 -20 8 0 15 9 15 20 0 15 7 20 25 20 18 0
25 -5 25 -20 0 -26 30 -26 37 0 3 11 14 20 25 20 11 0 22 -9 25 -20 3 -11 12
-20 19 -20 8 0 14 9 14 20 0 13 7 20 20 20 11 0 20 6 20 14 0 7 -9 16 -20 19
-11 3 -20 14 -20 25 0 11 9 22 20 25 11 3 20 12 20 21 0 9 -8 16 -20 16 -15 0
-20 7 -20 25 0 18 5 25 20 25 11 0 20 6 20 14 0 7 -9 16 -20 19 -12 3 -20 14
-20 26 0 18 6 21 45 21 l45 0 0 -170z"/>
</g>
</svg>
