<?xml version="1.0" standalone="no"?>
<!DOCTYPE svg PUBLIC "-//W3C//DTD SVG 20010904//EN"
 "http://www.w3.org/TR/2001/REC-SVG-20010904/DTD/svg10.dtd">
<svg version="1.0" xmlns="http://www.w3.org/2000/svg"
 width="53.000000pt" height="143.000000pt" viewBox="0 0 53.000000 143.000000"
 preserveAspectRatio="xMidYMid meet">

<g transform="translate(0.000000,143.000000) scale(0.100000,-0.100000)"
fill="#000000" stroke="none">
<path d="M199 1175 c-15 -8 -29 -21 -32 -28 -3 -8 -24 -17 -48 -20 -23 -3 -51
-15 -63 -27 -20 -19 -21 -32 -24 -240 l-3 -220 30 -30 29 -30 187 0 187 0 29
29 29 29 0 216 c0 209 -1 216 -22 241 -14 16 -38 28 -61 32 -23 3 -50 17 -67
34 -25 25 -36 29 -87 29 -32 -1 -70 -7 -84 -15z m129 -57 c7 -7 12 -20 12 -30
0 -15 -9 -18 -60 -18 -56 0 -60 1 -60 23 0 13 3 27 7 30 11 12 88 8 101 -5z
m-178 -67 c0 -35 23 -42 136 -39 l109 3 3 28 c4 29 28 37 50 15 17 -17 17
-389 0 -406 -17 -17 -329 -17 -346 0 -17 17 -17 389 0 406 19 19 48 15 48 -7z"/>
<path d="M166 935 c-19 -19 -11 -41 17 -49 37 -10 177 -7 198 4 10 6 19 17 19
25 0 25 -36 35 -129 35 -67 0 -93 -4 -105 -15z"/>
<path d="M156 803 c-11 -28 21 -43 96 -43 54 0 69 3 76 18 18 35 4 42 -83 42
-69 0 -84 -3 -89 -17z"/>
</g>
</svg>
