<?xml version="1.0" standalone="no"?>
<!DOCTYPE svg PUBLIC "-//W3C//DTD SVG 20010904//EN"
 "http://www.w3.org/TR/2001/REC-SVG-20010904/DTD/svg10.dtd">
<svg version="1.0" xmlns="http://www.w3.org/2000/svg"
 width="151.000000pt" height="143.000000pt" viewBox="0 0 151.000000 143.000000"
 preserveAspectRatio="xMidYMid meet">

<g transform="translate(0.000000,143.000000) scale(0.100000,-0.100000)"
fill="#FF3343" stroke="none">
<path d="M562 783 l-113 -4 3 -62 3 -62 175 3 175 2 30 30 29 30 -34 35 c-32
33 -37 35 -94 33 -34 -1 -112 -4 -174 -5z m243 -43 c17 -19 17 -21 0 -40 -16
-18 -31 -20 -137 -20 l-118 0 0 40 0 40 118 0 c106 0 121 -2 137 -20z m-285
-25 c0 -28 -4 -35 -20 -35 -16 0 -20 7 -20 35 0 28 4 35 20 35 16 0 20 -7 20
-35z"/>
<path d="M380 597 c-45 -23 -50 -48 -50 -250 0 -205 6 -233 55 -255 41 -19
507 -17 544 3 47 24 53 53 49 268 -4 266 27 241 -311 245 -198 2 -268 -1 -287
-11z m523 -50 c16 -11 17 -33 15 -207 l-3 -195 -260 0 -260 0 -3 195 c-2 174
-1 196 15 207 24 18 472 18 496 0z"/>
<path d="M455 477 c-3 -7 -4 -71 -3 -143 l3 -129 80 0 80 0 0 140 0 140 -78 3
c-58 2 -79 -1 -82 -11z m113 -129 l-3 -93 -30 0 -30 0 -3 79 c-2 44 -1 85 2
93 3 7 19 13 36 13 l31 0 -3 -92z"/>
<path d="M697 484 c-4 -4 -7 -16 -7 -26 0 -14 6 -19 23 -16 14 2 22 10 22 23
0 20 -25 32 -38 19z"/>
<path d="M817 484 c-4 -4 -7 -16 -7 -26 0 -14 6 -19 23 -16 14 2 22 10 22 23
0 20 -25 32 -38 19z"/>
<path d="M694 355 c-4 -9 -2 -21 4 -27 15 -15 44 -1 40 19 -4 23 -36 29 -44 8z"/>
<path d="M812 348 c2 -15 10 -23 23 -23 30 0 27 39 -3 43 -20 3 -23 0 -20 -20z"/>
<path d="M692 228 c2 -15 10 -23 23 -23 30 0 27 39 -3 43 -20 3 -23 0 -20 -20z"/>
<path d="M810 231 c0 -27 19 -36 37 -18 18 18 9 37 -18 37 -12 0 -19 -7 -19
-19z"/>
</g>
</svg>
